<svg width="100" height="100" viewBox="0 0 100 100" xmlns="http://www.w3.org/2000/svg">
  <defs>
    <path id="circlePath" d="M 50, 50 m -38, 0 a 38,38 0 1,1 76,0 a 38,38 0 1,1 -76,0" />
  </defs>
  
  <path d="M50,2 C65,2 70,7 80,12 C90,17 95,25 98,35 C101,45 98,60 95,70 C92,80 85,88 75,93 C65,98 55,99 45,98 C35,97 25,92 15,85 C5,78 2,65 3,50 C4,35 10,25 20,15 C30,5 38,2 50,2 Z" fill="#d1c1d1"/>
  
  <text font-family="DM Sans, sans-serif" font-size="7" font-weight="bold" fill="#5d3450" letter-spacing="1.5">
    <textPath href="#circlePath" startOffset="0%">
      REACH OUT • REACH OUT • REACH OUT • REACH OUT • 
    </textPath>
  </text>
  
  <g transform="translate(35, 38)" fill="none" stroke="#5d3450" stroke-width="2" stroke-linecap="round" stroke-linejoin="round">
    <path d="M4 4h22v14H4z" />
    <polyline points="26 4 15 13 4 4" />
  </g>
</svg>